<svg version="1.1" viewBox="0.0 0.0 113.60104986876641 152.0" fill="none" stroke="none" stroke-linecap="square" stroke-miterlimit="10" xmlns:xlink="http://www.w3.org/1999/xlink" xmlns="http://www.w3.org/2000/svg"><clipPath id="p.0"><path d="m0 0l113.60105 0l0 152.0l-113.60105 0l0 -152.0z" clip-rule="nonzero"/></clipPath><g clip-path="url(#p.0)"><path fill="#000000" fill-opacity="0.0" d="m0 0l113.60105 0l0 152.0l-113.60105 0z" fill-rule="evenodd"/><path fill="#89c79e" d="m79.32284 45.354332l34.015747 0l0 34.015747l-34.015747 0z" fill-rule="evenodd"/><path fill="#89c79e" d="m0.015748031 18.929386l0 0c0 -10.4544115 8.474975 -18.929386 18.929384 -18.929386l37.73178 0l0 0c5.0203857 0 9.835148 1.9943403 13.3850975 5.5442886c3.5499496 3.5499487 5.5442886 8.364712 5.5442886 13.3850975l0 113.32233c0 10.454422 -8.474976 18.929398 -18.929386 18.929398l-37.73178 0l0 0c-10.454411 0 -18.929384 -8.474976 -18.929384 -18.929398z" fill-rule="evenodd"/><path fill="#89c79e" d="m0.015748031 52.903263l0 0c0 -10.431286 8.456229 -18.887516 18.887516 -18.887516l75.5478 0l0 0c5.009285 0 9.813393 1.9899292 13.355492 5.532028c3.542099 3.5420952 5.532028 8.3462105 5.532028 13.355488l0 79.39032c0 10.43129 -8.45623 18.887527 -18.88752 18.887527l-75.5478 0c-10.431288 0 -18.887516 -8.456238 -18.887516 -18.887527z" fill-rule="evenodd"/><path fill="#89c79e" d="m0.015748031 28.33071l0 0c0 -15.646619 12.684091 -28.33071 28.330708 -28.33071l0 0l0 0c7.513773 0 14.719797 2.984834 20.032835 8.297873c5.3130417 5.313039 8.297874 12.519066 8.297874 20.032837l0 94.519684c0 15.646614 -12.68409 28.330711 -28.33071 28.330711l0 0l0 0c-15.646618 0 -28.330708 -12.684097 -28.330708 -28.330711z" fill-rule="evenodd"/><path fill="#89c79e" d="m31.929134 0l24.755905 0l0 151.1811l-24.755905 0z" fill-rule="evenodd"/><path fill="#89c79e" d="m45.307087 0l22.677166 0l0 45.354332l-22.677166 0z" fill-rule="evenodd"/><path fill="#ffffff" fill-opacity="0.3333" d="m0 131.11522l0 -111.04933c0 -5.321804 2.1140788 -10.425642 5.877163 -14.188726c3.7630844 -3.7630842 8.866922 -5.877163 14.188726 -5.877163l36.62702 0c6.942749E-4 0 0.0012588501 5.640507E-4 0.0012588501 0.0012598425l-0.0012588501 151.17984l0 0c0 6.866455E-4 -5.645752E-4 0.0012512207 -0.0012588501 0.0012512207l-36.625763 -0.0012512207l0 0c-11.082085 0 -20.06589 -8.98381 -20.06589 -20.065887z" fill-rule="evenodd"/><path fill="#ffffff" d="m18.88189 73.07089l0 0c0 -0.6958084 0.5640621 -1.2598724 1.2598686 -1.2598724l73.070816 0c0.33413696 0 0.6545944 0.1327362 0.8908615 0.36901093c0.23627472 0.23626709 0.36901093 0.55672455 0.36901093 0.8908615l0 5.039322c0 0.6958008 -0.564064 1.2598648 -1.2598724 1.2598648l-73.070816 0l0 0c-0.6958065 0 -1.2598686 -0.564064 -1.2598686 -1.2598648z" fill-rule="evenodd"/><path fill="#ffffff" d="m18.88189 98.51183l0 0c0 -0.6958008 0.5640621 -1.2598648 1.2598686 -1.2598648l73.070816 0c0.33413696 0 0.6545944 0.1327362 0.8908615 0.3690033c0.23627472 0.23627472 0.36901093 0.55672455 0.36901093 0.8908615l0 5.039322c0 0.6958084 -0.564064 1.2598648 -1.2598724 1.2598648l-73.070816 0l0 0c-0.6958065 0 -1.2598686 -0.5640564 -1.2598686 -1.2598648z" fill-rule="evenodd"/><path fill="#ffffff" d="m18.88189 123.95278l0 0c0 -0.6958084 0.5640621 -1.2598648 1.2598686 -1.2598648l73.070816 0c0.33413696 0 0.6545944 0.13272858 0.8908615 0.3690033c0.23627472 0.23627472 0.36901093 0.55672455 0.36901093 0.8908615l0 5.0393143c0 0.69581604 -0.564064 1.2598724 -1.2598724 1.2598724l-73.070816 0l0 0c-0.6958065 0 -1.2598686 -0.5640564 -1.2598686 -1.2598724z" fill-rule="evenodd"/><path fill="#89c79e" d="m67.98425 45.354332l0 -45.354332l45.354332 45.354332z" fill-rule="evenodd"/><path fill="#000000" fill-opacity="0.1563" d="m67.98425 45.354332l0 -45.354332l45.354332 45.354332z" fill-rule="evenodd"/></g></svg>